<svg width="134" height="36" viewBox="0 0 134 36" fill="none" xmlns="http://www.w3.org/2000/svg">
<g clip-path="url(#clip0_1_3)">
<path d="M71.1475 11.6421V29.0276H65.8451V27.3934C64.8906 28.6799 63.123 29.5144 60.7899 29.5144C57.2195 29.5144 54.1794 27.0108 54.1794 22.3167V11.6421H59.4819V21.5519C59.4819 23.7077 60.8606 24.7159 62.5574 24.7159C64.5018 24.7159 65.8452 23.6033 65.8452 21.1346V11.6421H71.1475Z" fill="#1E1E1E"/>
<path d="M92.8175 4.68787V29.0276H87.515V27.3934C86.3484 28.7147 84.6162 29.5144 82.2478 29.5144C77.6169 29.5144 73.799 25.5158 73.799 20.3348C73.799 15.1539 77.6169 11.1553 82.2478 11.1553C84.6162 11.1553 86.3485 11.955 87.515 13.2763V4.68787H92.8175ZM87.515 20.3348C87.515 17.727 85.7475 16.0928 83.3083 16.0928C80.8691 16.0928 79.1016 17.727 79.1016 20.3348C79.1016 22.9427 80.8691 24.5769 83.3083 24.5769C85.7475 24.5769 87.515 22.9427 87.515 20.3348Z" fill="#1E1E1E"/>
<path d="M95.8221 6.98272C95.8221 6.36378 96.0087 5.75874 96.3583 5.24411C96.7079 4.72948 97.2047 4.32838 97.7861 4.09152C98.3674 3.85466 99.0071 3.79269 99.6243 3.91343C100.241 4.03418 100.808 4.33223 101.253 4.76988C101.698 5.20753 102.001 5.76514 102.124 6.37219C102.247 6.97923 102.184 7.60845 101.943 8.18027C101.702 8.7521 101.294 9.24085 100.771 9.58471C100.248 9.92857 99.6329 10.1121 99.0036 10.1121C98.1625 10.1038 97.3581 9.77141 96.7633 9.18633C96.1685 8.60125 95.8305 7.81011 95.8221 6.98272ZM96.3524 11.642H101.655V29.0276H96.3524L96.3524 11.642Z" fill="#1E1E1E"/>
<path d="M111.624 11.642H114.911V16.6491H111.624V29.0275H106.321V16.6491H103.953V11.642H106.321C106.321 6.77409 109.043 3.85333 114.911 4.201V9.20807C112.932 9.0342 111.624 9.62534 111.624 11.642Z" fill="#1E1E1E"/>
<path d="M134 11.6421L127.955 28.506C125.976 34.0346 122.829 36.2253 117.88 35.9819V31.1139C120.355 31.1139 121.521 30.3489 122.299 28.2279L115.264 11.6421H121.097L125.021 22.282L128.344 11.6421H134Z" fill="#1E1E1E"/>
<path d="M5.97376 20.3546L0 30.5318H11.9475L5.97376 20.3546Z" fill="#45BFA8"/>
<path d="M17.9213 20.3546L11.9475 30.5318H23.895L17.9213 20.3546Z" fill="#97D3C7"/>
<path d="M29.8688 20.3546L23.8951 30.5318H35.8426L29.8688 20.3546Z" fill="#97D3C7"/>
<path d="M11.9475 30.5318L5.97375 20.3546H17.9213L11.9475 30.5318Z" fill="#6FC9B8"/>
<path d="M29.8688 20.3557L23.8919 30.531L17.9243 20.3557H29.8688Z" fill="#BAE0D9"/>
<path d="M41.8132 20.3557L35.8456 30.531L29.8688 20.3557H41.8132Z" fill="#6FC9B8"/>
<path d="M11.9475 10.1772L5.97375 20.3546H17.9213L11.9475 10.1772Z" fill="#45BFA8"/>
<path d="M41.8132 20.3557H29.8688L35.8456 10.1805L41.8132 20.3557Z" fill="#45BFA8"/>
<path d="M23.8919 10.1805L17.9243 20.3557L11.9474 10.1805H23.8919Z" fill="#22B29A"/>
<path d="M47.7901 10.1806L43.095 18.1737L38.4071 10.1806H47.7901Z" fill="#22B29A"/>
<path d="M17.9213 0L11.9475 10.1772H23.895L17.9213 0Z" fill="#00826C"/>
<path d="M43.5769 6.58816H40.0588L41.8165 3.58878L43.5769 6.58816Z" fill="#0AAB96"/>
<path d="M52.0032 1.49893L47.7901 8.67804L43.5768 1.49893H52.0032Z" fill="#00826C"/>
</g>
<defs>
<clipPath id="clip0_1_3">
<rect width="134" height="36" fill="white"/>
</clipPath>
</defs>
</svg>
